<?xml version="1.0" encoding="UTF-8" standalone="no"?>

<svg width="12mm" height="12mm" viewBox="0 0 140 140" version="1.1" id="svg5" xml:space="preserve"
    xmlns="http://www.w3.org/2000/svg" xmlns:svg="http://www.w3.org/2000/svg">
    <defs id="defs2" />
    <g id="layer1">
        <path
            d="M 69.858345,140 Q 55.532439,140 42.793508,134.48068 30.054771,128.96153 20.546531,119.45347 11.038486,109.94525 5.5193403,97.170945 0,84.396833 0,70.000006 0,55.192386 5.6114377,42.418089 11.222694,29.643787 20.950512,20.192289 30.678135,10.740972 43.764304,5.3704862 56.850293,0 71.728824,0 85.431172,0 97.801505,4.5629144 110.172,9.1256338 119.5314,17.287476 128.89061,25.449498 134.44531,36.657995 140,47.866315 140,61.200429 140,79.394582 129.56371,90.340954 119.12761,101.28733 100.8198,101.28733 H 87.358394 q -4.378692,0 -7.552835,3.25206 -3.174143,3.25206 -3.174143,7.51729 0,5.46976 2.706429,8.68628 2.70661,3.21668 2.70661,7.46773 0,5.65361 -3.159954,8.72147 Q 75.724547,140 69.858345,140 Z m 0.141613,-69.999994 z m -42.283421,3.655851 q 3.1174,0 5.490781,-2.373559 2.373547,-2.373375 2.373547,-5.490778 0,-3.117403 -2.373547,-5.490777 -2.373381,-2.37356 -5.490781,-2.37356 -3.117401,0 -5.490962,2.37356 -2.373381,2.373374 -2.373381,5.490777 0,3.117403 2.373381,5.490778 2.373561,2.373559 5.490962,2.373559 z M 50.643619,42.835881 q 3.117401,0 5.490962,-2.373375 2.373381,-2.373559 2.373381,-5.490968 0,-3.117219 -2.373381,-5.490767 -2.373561,-2.37338 -5.490962,-2.37338 -3.1174,0 -5.49078,2.37338 -2.373548,2.373548 -2.373548,5.490767 0,3.117409 2.373548,5.490968 2.37338,2.373375 5.49078,2.373375 z m 38.712678,0 q 3.117414,0 5.490781,-2.373375 2.373561,-2.373559 2.373561,-5.490968 0,-3.117219 -2.373561,-5.490767 -2.373367,-2.37338 -5.490781,-2.37338 -3.1174,0 -5.490962,2.37338 -2.373367,2.373548 -2.373367,5.490767 0,3.117409 2.373367,5.490968 2.373562,2.373375 5.490962,2.373375 z m 23.564833,30.819976 q 3.11722,0 5.49078,-2.373559 2.37342,-2.373375 2.37342,-5.490778 0,-3.117403 -2.37338,-5.490777 -2.37356,-2.37356 -5.49078,-2.37356 -3.1174,0 -5.49096,2.37356 -2.37337,2.373374 -2.37337,5.490777 0,3.117403 2.37337,5.490778 2.37356,2.373559 5.49096,2.373559 z M 69.858303,131.63978 q 2.026324,0 2.926007,-0.82894 0.899808,-0.82893 0.899808,-2.60014 0,-2.57896 -2.706429,-4.86041 -2.706611,-2.28145 -2.706611,-9.5506 0,-8.40279 5.490962,-14.637777 5.490962,-6.234807 13.752087,-6.234807 h 13.305563 q 14.35447,0 22.58723,-8.445338 8.23276,-8.445339 8.23276,-23.281325 0,-23.819958 -18.1376,-38.330075 Q 95.36428,8.3602536 71.728727,8.3602536 q -26.611494,0 -44.990046,17.8612814 -18.3785527,17.861467 -18.3785527,43.778484 0,25.548595 18.0101347,43.594271 18.010122,18.0455 43.487984,18.0455 z"
            id="path350" style="stroke-width:0.184212" />
    </g>
</svg>