<?xml version="1.0" encoding="UTF-8" standalone="no"?>

<svg width="14mm" height="14mm" viewBox="0 0 140 140" version="1.1" id="svg2071" xml:space="preserve"
    xmlns="http://www.w3.org/2000/svg" xmlns:svg="http://www.w3.org/2000/svg">
    <defs id="defs2068" />
    <g id="layer1">
        <path
            d="M 10.68418,140 Q 6.26313,140 3.13164,136.03333 0,132.06666 0,126.46666 V 13.533339 Q 0,7.933339 3.13164,3.96667 6.26313,0 10.68418,0 h 118.63164 q 4.42105,0 7.55254,3.96667 Q 140,7.933339 140,13.533339 V 126.46666 q 0,5.6 -3.13164,9.56667 Q 133.73687,140 129.31582,140 Z m 0,-10.50001 h 118.63164 q 0.92041,0 1.65786,-0.93339 0.7366,-0.9334 0.7366,-2.09999 V 29.866608 H 8.28916 v 96.600002 q 0,1.16674 0.73661,2.1 0.73661,0.9334 1.65786,0.9334 z"
            id="path2208" style="stroke-width:4.14643" />
        <path
            d="m 70,75.543858 q -7.73332,0 -12.733373,-4.605265 -4.999974,-4.605257 -4.999974,-11.728067 0,-7.12281 4.999974,-11.666668 Q 62.26668,43 70,43 q 7.733316,0 12.733279,4.543858 5.000062,4.543858 5.000062,11.666668 0,7.12281 -5.000062,11.728067 Q 77.733316,75.543858 70,75.543858 Z M 30,113 v -9.33334 q 0,-3.929819 2.266613,-6.877186 2.266707,-2.947368 5.866734,-4.543858 8.533266,-3.4386 16.333293,-5.157895 Q 62.26668,85.368426 70,85.368426 q 7.733316,0 15.533355,1.780693 7.799934,1.780703 16.199965,5.219302 3.73337,1.59649 5.99997,4.48246 Q 110,99.736841 110,103.66666 V 113 Z m 5.999973,-5.52631 h 68.000057 v -3.80703 q 0,-1.8421 -1.33342,-3.6228 -1.33332,-1.780702 -3.466581,-2.763155 Q 91.333367,93.7193 84.333279,92.307014 77.333292,90.894737 70,90.894737 q -7.333387,0 -14.46672,1.412277 -7.133333,1.412286 -14.866653,4.973691 -2.000014,0.982453 -3.333334,2.763155 -1.33332,1.7807 -1.33332,3.6228 z M 70,70.017547 q 4.933341,0 8.266684,-3.070174 3.333341,-3.070183 3.333341,-7.736847 0,-4.543858 -3.333341,-7.614032 Q 74.933341,48.52632 70,48.52632 q -4.933347,0 -8.26668,3.070174 -3.333347,3.070174 -3.333347,7.614032 0,4.666664 3.333347,7.736847 3.333333,3.070174 8.26668,3.070174 z m 0,-10.807021 z m 0,48.263164 z"
            id="path2248" style="stroke-width:2.55923" />
    </g>
</svg>