<?xml version="1.0" encoding="UTF-8" standalone="no"?>
<!-- Created with Inkscape (http://www.inkscape.org/) -->

<svg
  width="14mm"
  height="14mm"
  viewBox="0 0 140 140"
  version="1.1"
  id="svg5"
  xml:space="preserve"
  xmlns="http://www.w3.org/2000/svg"
  xmlns:svg="http://www.w3.org/2000/svg"><defs
     id="defs2" /><g
     id="layer1"><path
       d="M 64.75,110 H 35.000007 Q 20.475006,110 10.237509,98.30001 0,86.599994 0,70.000007 0,53.400006 10.237509,41.700011 20.475006,30 35.000007,30 H 64.75 V 41.999999 H 35.000007 q -10.208275,0 -17.354226,8.153 -7.145782,8.152803 -7.145782,19.800006 0,11.646992 7.145782,19.846995 7.145951,8.2 17.354226,8.2 H 64.75 Z M 42.875,76.000007 V 64.000008 h 54.25 V 76.000007 Z M 75.25,110 V 98 h 29.74999 q 10.20828,0 17.35423,-8.153 Q 129.5,81.694198 129.5,70.046995 q 0,-11.646992 -7.14578,-19.846994 -7.14595,-8.200002 -17.35423,-8.200002 H 75.25 V 30 h 29.74999 q 14.525,0 24.7625,11.700011 Q 140,53.400006 140,70.000007 140,86.599994 129.76249,98.30001 119.52499,110 104.99999,110 Z"
       id="path140"
       style="stroke-width:0.187084" /></g></svg>