<svg width="14mm" height="14mm" viewBox="0 0 140 140" version="1.1" id="svg323" xml:space="preserve"
    xmlns="http://www.w3.org/2000/svg" xmlns:svg="http://www.w3.org/2000/svg">
    <defs id="defs320" />
    <g id="layer1">
        <path
            d="M 0,63.205876 V 0 h 63.205877 v 63.205876 z m 9.264713,-9.2647 H 53.941177 V 9.264697 H 9.264713 Z M 0,140 V 76.794106 H 63.205877 V 140 Z m 9.264713,-9.26471 H 53.941177 V 86.058826 H 9.264713 Z M 76.794107,63.205876 V 0 H 140 v 63.205876 z m 9.26472,-9.2647 H 130.73529 V 9.264697 H 86.058827 Z M 124.14706,140 V 124.14705 H 140 V 140 Z M 76.794107,92.647056 v -15.85295 h 15.64707 v 15.85295 z m 15.64707,15.647064 V 92.647056 H 108.5 v 15.647064 z m -15.64707,15.85293 v -15.85293 h 15.64707 v 15.85293 z M 92.441177,140 V 124.14705 H 108.5 V 140 Z M 108.5,124.14705 v -15.85293 h 15.64706 v 15.85293 z m 0,-31.499994 v -15.85295 h 15.64706 v 15.85295 z m 15.64706,15.647064 V 92.647056 H 140 v 15.647064 z"
            id="path570" style="stroke-width:4.11764" />
    </g>
</svg>