<svg width="14mm" height="14mm" viewBox="0 0 160 160" version="1.1" id="svg5" xml:space="preserve"
    xmlns="http://www.w3.org/2000/svg" xmlns:svg="http://www.w3.org/2000/svg">
    <defs id="defs2">
        <clipPath clipPathUnits="userSpaceOnUse" id="clipPath727">
            <path id="path729" style="fill:#ff0000;fill-opacity:1;fill-rule:nonzero;stroke:none;stroke-width:0.264583"
                d="m 0,0 v 100.0001 h 51.841797 c -0.100698,-0.31168 -0.186174,-0.650172 -0.25373,-1.016477 -0.117303,-0.636003 -0.258382,-1.267341 -0.33745,-1.909961 -0.12636,-0.872271 -0.213016,-1.750404 -0.248044,-2.631366 -0.02741,-0.772131 -0.01603,-1.544122 -0.02273,-2.316652 -0.02535,-2.91642 1.35254,-4.374907 2.739882,-4.374928 1.387351,-2.1e-5 2.784391,1.458423 2.796731,4.374928 1.4e-4,0.03272 -5.29e-4,0.06546 -5.29e-4,0.09818 0.647425,-0.595725 1.471488,-0.921321 2.634467,-0.958599 0.817493,0.01474 1.635315,0.03107 2.451528,0.08165 1.066845,0.07027 2.129401,0.184682 3.193087,0.291454 0.714489,0.06239 1.429769,0.111744 2.145607,0.15503 0.135443,-0.03792 0.271531,-0.07459 0.408244,-0.108521 2.038607,-0.487625 4.110659,-0.767993 6.212022,-0.740524 3.012583,-0.01413 6.025563,0.0365 9.038209,0.01913 0.07475,-0.119462 0.14853,-0.239503 0.221176,-0.360185 1.011873,-1.818264 1.918716,-3.685982 2.70836,-5.612577 0.591449,-1.249868 1.192607,-2.502805 1.980758,-3.645257 0.18003,-0.260956 0.360241,-0.523148 0.551389,-0.776695 -0.194493,-0.733124 -0.316328,-1.428745 -0.236162,-2.190565 -2.634988,-2.284722 -1.532683,-4.913297 1.094505,-4.862235 0.47421,0.0092 0.999609,0.110101 1.560113,0.312127 -0.415261,-1.857656 -7.017282,-3.013194 -2.463417,-3.78995 0.428639,-0.07312 0.86173,-0.101936 1.296046,-0.104386 0.434319,-0.0024 0.869405,0.02175 1.301213,0.05529 0.629383,0.09711 1.253895,0.232461 1.869654,0.394809 0.447093,0.118224 0.887235,0.265917 1.321882,0.423746 0.129879,0.05107 0.267338,0.05772 0.404628,0.06821 0.36948,0.02692 0.74023,0.03496 1.110525,0.04186 0.520398,-0.0122 1.036481,0.05399 1.55236,0.11162 0.434105,0.02653 0.859854,0.114064 1.28881,0.179834 0.0436,0.0056 0.08714,0.01148 0.130741,0.01704 0.651883,0.08441 1.220245,0.229637 1.708428,0.419613 V 0 Z m 62.14246,68.035125 c 3.974002,0.02622 4.47081,4.273367 -0.454237,5.608442 -0.391549,0.106143 -0.680939,0.373996 -0.986501,0.625284 -0.0284,0.03272 -0.06533,0.05972 -0.08527,0.09819 -0.05164,0.09965 0.09253,-0.09011 0.07545,0.04547 -0.01595,0.12655 -0.04713,0.250677 -0.06976,0.376206 -0.05556,0.341394 -0.0884,0.685821 -0.121441,1.029909 -0.556649,5.796915 -6.089779,5.246891 -5.499923,-0.546735 0.05568,-0.546849 0.111861,-1.09415 0.216009,-1.634527 0.337886,-1.502177 0.804473,-2.648387 2.014863,-3.672126 0.903864,-0.720881 1.870067,-1.35795 3.000335,-1.661914 0.703956,-0.189317 1.342763,-0.271946 1.910477,-0.2682 z m 37.85764,31.774286 c -0.28083,0.06941 -0.562714,0.132805 -0.845945,0.190689 h 0.845945 z" />
        </clipPath>
        <clipPath clipPathUnits="userSpaceOnUse" id="clipPath1171">
            <path id="path1173" style="fill:#ff0000;fill-opacity:1;fill-rule:nonzero;stroke:none;stroke-width:0.264583"
                d="m 0,0 v 100.0001 h 63.169787 c -0.0011,-0.420514 -0.0027,-0.84095 -0.0072,-1.261423 -0.0068,-0.564576 -0.01641,-1.128861 -0.04289,-1.692921 -0.03794,-0.719182 -0.08669,-1.438338 -0.170016,-2.153875 -0.0696,-0.562033 -0.152836,-1.121897 -0.223758,-1.683618 -0.05357,-0.434168 -0.155289,-0.861343 -0.188619,-1.298112 -0.04451,-0.408154 -0.102095,-0.815154 -0.192754,-1.215945 -0.703784,-3.111286 0.609317,-4.883513 2.145607,-4.918562 1.272923,-0.02904 2.69939,1.134523 3.259232,3.717602 0.0895,0.412967 0.1548,0.830215 0.212389,1.248503 0.366155,-0.939306 0.828109,-1.819892 2.305804,-1.876888 1.474481,-0.05688 2.368741,0.528828 2.843237,1.406115 0.111186,-0.04389 0.228931,-0.07344 0.354499,-0.08217 0.597043,-0.04147 1.107168,-0.02969 1.545643,0.03359 0.246258,-0.104254 0.492498,-0.208984 0.737939,-0.315228 1.950675,-0.886428 3.860133,-1.872636 5.612061,-3.115056 2.547908,-1.7718 5.035735,-3.63116 7.372675,-5.676656 0.163971,-0.136369 1.95166,-1.672892 2.17868,-1.652611 0.206119,0.01841 0.413816,0.04296 0.621668,0.0708 0.04383,-0.69486 0.08964,-1.389319 0.142626,-2.083594 0.129376,-1.899563 0.312669,-3.794432 0.494027,-5.689576 0.0065,-0.07527 0.01283,-0.150543 0.01913,-0.225825 -0.509858,-0.202366 -1.021652,-0.399084 -1.522386,-0.611849 -0.697648,-0.276399 -1.204651,-0.475657 -1.889808,-0.754993 -2.480445,-0.177732 -3.646038,-1.636676 -3.363619,-3.014287 -1.594474,-1.439844 -0.755192,-4.007636 3.108336,-4.524272 1.18278,-0.15816 2.376151,-0.217522 3.567226,-0.274402 1.023424,-0.04339 2.047513,-0.06669 3.071646,-0.08526 0.63087,-0.01056 1.261967,-0.01437 1.892909,-0.01757 0.387934,-0.0019 0.775816,-0.003 1.163753,-0.0036 0.67168,-0.0011 1.265241,0.07179 1.782326,0.201023 V 0 Z m 89.775398,81.439991 c -0.141153,-0.0208 -0.483087,0.468402 -0.176734,1.016476 0.01725,-0.06322 0.03448,-0.126423 0.05168,-0.189653 0.05492,-0.202629 0.117859,-0.403101 0.164849,-0.607716 0.03329,-0.144984 0.0086,-0.211982 -0.03979,-0.219107 z M 100.0001,94.459867 c -0.03271,0.13906 -0.06526,0.278159 -0.0987,0.417028 -0.08163,0.502362 -0.171429,1.003491 -0.272335,1.502751 -0.212604,1.060355 -0.491123,2.106788 -0.783416,3.147611 -0.05576,0.171376 -0.112173,0.328086 -0.169497,0.472843 h 1.323948 z" />
        </clipPath>
    </defs>
    <g id="layer1">
        <path id="path357" style="stroke-width:2.94117"
            d="M 68.52919,60 C 66.17626,60 64.16672,60.833442 62.5001,62.500106 60.83341,64.16677 60,66.176776 60,68.529712 v 82.940658 c 0,2.35295 0.83341,4.36294 2.5001,6.02961 1.66662,1.66666 3.67616,2.5001 6.02909,2.5001 h 82.94119 c 2.35294,0 4.36294,-0.83344 6.02961,-2.5001 1.66666,-1.66667 2.5001,-3.67666 2.5001,-6.02961 V 68.529712 c 0,-2.352936 -0.83344,-4.362942 -2.5001,-6.029606 C 155.83332,60.833442 153.82332,60 151.47038,60 Z m 0,6.617684 h 82.94119 c 0.49017,0 0.93177,0.195896 1.32395,0.588078 0.39218,0.392129 0.58808,0.833208 0.58808,1.323433 v 82.941175 c 0,0.49017 -0.1959,0.93176 -0.58808,1.32395 -0.39213,0.39218 -0.83372,0.58808 -1.32395,0.58808 H 68.52919 c -0.4903,0 -0.9314,-0.1959 -1.32343,-0.58808 -0.39204,-0.39213 -0.58808,-0.83372 -0.58808,-1.32395 V 68.529195 c 0,-0.490173 0.19604,-0.931252 0.58808,-1.323433 0.39248,-0.392182 0.83358,-0.588078 1.32343,-0.588078 z" />
        <path
            d="m 21.76475,78.08829 h 40.232821 v -6.7648 H 21.76475 Z m 0,-24.70589 H 78.23536 V 46.6176 H 21.76475 Z m 0,-24.70589 h 56.47061 v -6.7648 H 21.76475 Z M 8.5294,100 C 6.1764533,100 4.16667,99.166687 2.50005,97.50006 0.83335,95.833367 0,93.823547 0,91.4706 V 8.5294 C 0,6.1764533 0.83335,4.1666333 2.50005,2.49994 4.16667,0.83331333 6.1764533,0 8.5294,0 h 82.9412 c 2.352947,0 4.362767,0.83331333 6.02946,2.49994 C 99.166687,4.1666333 100,6.1764533 100,8.5294 v 82.9412 c 0,2.352947 -0.833313,4.362767 -2.49994,6.02946 C 95.833367,99.166687 93.823547,100 91.4706,100 Z m 0,-6.61762 h 82.9412 c 0.4906,0 0.931807,-0.196017 1.32362,-0.58805 0.392033,-0.392033 0.58805,-0.8332 0.58805,-1.3235 V 8.52962 c 0,-0.4906 -0.196017,-0.9317667 -0.58805,-1.3235 C 92.402187,6.8140867 91.96098,6.61807 91.4706,6.61807 H 8.5294 c -0.48986,0 -0.93103,0.1960167 -1.32351,0.58805 -0.3920333,0.3920333 -0.58805,0.8332 -0.58805,1.3235 v 82.94121 c 0,0.490593 0.1960167,0.93176 0.58805,1.3235 0.3920333,0.392033 0.8332033,0.58805 1.32351,0.58805 z M 6.61762,6.61762 v 86.76476 z"
            id="path1006" style="stroke-width:2.94117" clip-path="url(#clipPath1171)" />
        <path
            d="m 110,85 c -6.02272,0 -10.90909,4.199219 -10.90909,9.37502 v 15.62499 c 0,5.17578 4.88637,9.375 10.90909,9.375 6.02273,0 10.9091,-4.19922 10.9091,-9.375 V 94.37502 C 120.9091,89.199219 116.02273,85 110,85 Z m -14.54545,21.09376 c 0,-1.29883 -1.21591,-2.34375 -2.72728,-2.34375 -1.51136,0 -2.72727,1.04492 -2.72727,2.34375 v 3.90625 c 0,8.70116 7.52273,15.88866 17.27273,17.03125 v 3.28125 h -5.45454 c -1.51137,0 -2.72728,1.04491 -2.72728,2.34375 0,1.29882 1.21591,2.34375 2.72728,2.34375 H 110 h 8.18182 c 1.51136,0 2.72728,-1.04493 2.72728,-2.34375 0,-1.29884 -1.21592,-2.34375 -2.72728,-2.34375 h -5.45455 v -3.28125 C 122.47727,125.88867 130,118.70117 130,110.00001 v -3.90625 c 0,-1.29883 -1.2159,-2.34375 -2.72727,-2.34375 -1.51136,0 -2.72727,1.04492 -2.72727,2.34375 v 3.90625 c 0,6.90429 -6.51136,12.5 -14.54546,12.5 -8.03409,0 -14.54545,-5.59571 -14.54545,-12.5 z"
            id="path948" style="stroke-width:0.105344" />
    </g>
</svg>