<?xml version="1.0" encoding="UTF-8" standalone="no"?>

<svg width="14mm" height="14mm" viewBox="0 0 140 140" version="1.1" id="svg5" xml:space="preserve" xmlns="http://www.w3.org/2000/svg" xmlns:svg="http://www.w3.org/2000/svg">
  <defs id="defs2" />
  <g id="layer1">
    <path d="M 69.999993,119 Q 90.475003,119 104.7375,104.7375 119,90.475006 119,69.999993 119,49.524999 104.7375,35.2625 90.475003,21.000001 69.999993,21.000001 V 69.999993 L 36.575003,105.00001 Q 43.050001,111.825 51.799997,115.4125 60.549993,119 69.999993,119 Z m 0,21 Q 55.650002,140 42.875004,134.4875 30.099992,128.975 20.5625,119.43751 11.024994,109.9 5.512503,97.124996 0,84.349996 0,69.999993 0,55.475004 5.512503,42.699993 11.024994,29.924994 20.5625,20.474994 30.099992,11.024994 42.875004,5.512503 55.650002,0 69.999993,0 q 14.525003,0 27.3,5.512503 12.775007,5.512491 22.224997,14.962491 9.45,9.45 14.9625,22.224999 Q 140,55.475004 140,69.999993 140,84.349996 134.48749,97.124996 128.97499,109.9 119.52499,119.43751 110.075,128.975 97.299993,134.4875 84.524996,140 69.999993,140 Z m 0,-10.5 q 24.85001,0 42.175007,-17.41249 Q 129.5,94.675006 129.5,69.999993 129.5,45.150001 112.175,27.824994 94.850003,10.5 69.999993,10.5 45.324999,10.5 27.9125,27.824994 10.5,45.150001 10.5,69.999993 10.5,94.675006 27.9125,112.08751 45.324999,129.5 69.999993,129.5 Z m 0,-59.500007 z" id="path315" style="stroke-width:3.49999" />
  </g>
</svg>